<svg xmlns="http://www.w3.org/2000/svg" viewBox="0 0 1200 800" role="img" aria-labelledby="t d"><title id="t">Illustration of the Carruleddhi crowd</title><desc id="d">A lively crowd cheers beside the downhill course.</desc><defs><linearGradient id="bg" x2="1" y2="1"><stop stop-color="#174ea6"/><stop offset="1" stop-color="#071a3d"/></linearGradient></defs><rect width="1200" height="800" fill="url(#bg)"/><circle cx="963" cy="156" r="114" fill="#ffc928"/><path d="M0 506c240-116 469-113 716 3 160 76 319 88 484 31v260H0Z" fill="#f6494f"/><path d="M0 550c270-85 509-70 753 44 143 67 292 80 447 34v172H0Z" fill="#fff6e7"/><g stroke="#071a3d" stroke-width="17"><g transform="translate(90 287)"><circle cx="65" cy="45" r="45" fill="#ffc928"/><path d="M4 192c4-77 23-109 61-109s58 32 62 109" fill="#fff"/><path d="m43 94-69-68M85 95l80-100" fill="none" stroke-linecap="round"/></g><g transform="translate(304 245)"><circle cx="65" cy="45" r="45" fill="#fff"/><path d="M4 220c4-95 23-137 61-137s58 42 62 137" fill="#ffc928"/><path d="m43 94-75-93M85 95l71-87" fill="none" stroke-linecap="round"/></g><g transform="translate(532 315)"><circle cx="65" cy="45" r="45" fill="#f6494f"/><path d="M4 183c4-68 23-100 61-100s58 32 62 100" fill="#fff"/><path d="m43 94-67-53M85 95l83-57" fill="none" stroke-linecap="round"/></g><g transform="translate(752 258)"><circle cx="65" cy="45" r="45" fill="#fff"/><path d="M4 218c4-93 23-135 61-135s58 42 62 135" fill="#2469d8"/><path d="m43 94-72-82M85 95l77-83" fill="none" stroke-linecap="round"/></g><g transform="translate(984 329)"><circle cx="65" cy="45" r="45" fill="#ffc928"/><path d="M4 166c4-57 23-83 61-83s58 26 62 83" fill="#fff"/><path d="m43 94-62-48M85 95l63-54" fill="none" stroke-linecap="round"/></g></g><g fill="#fff"><path d="m99 112 13 29 32 3-24 21 7 31-28-16-28 16 7-31-24-21 32-3Z"/><path d="m687 81 10 22 24 3-18 16 5 24-21-12-21 12 5-24-18-16 24-3Z"/><path d="m1100 89 12 26 29 3-22 19 6 29-25-15-25 15 6-29-22-19 29-3Z"/></g><path d="M0 660h1200" stroke="#071a3d" stroke-width="18" stroke-dasharray="45 28"/></svg>
